<svg xmlns="http://www.w3.org/2000/svg" viewBox="0 0 1235.46 982.65"><defs><style>.a{fill:none;stroke:#1c3652;stroke-miterlimit:10;stroke-width:5px;}</style></defs><title>loader</title><path class="a" d="M127.71,671.15s124-200,94-572c0,0-20-72-36,98s-42.63,224,40.69,426c0,0,29.31,50,21.31,64s146-178,94-272-76,110.65-58,175.32,70,132.68,86-43.32c0,0-.45-74.12-13.33-101.33,0,0,57.33-72,117.33-68,0,0-103.33-10-82.66,166s80,78,82.66,25.33,7.34-194.67,7.34-194.67-33.34,291.34,42,260,80.66-252.66,80.66-252.66-89.33-68.67-78.66,104.66,68.66,94.67,68.66,94.67,26.67-204.67,20-252-38-196-38-196,22.67,473.33,78.67,481.33,78-224,63.33-262-23.33,210,14.67,226.67,60.67-116.67,56-206.67-12,145.34,47.33,212c0,0-50.66-230.66-6.66-239.33s70.66,241.33,70.66,241.33,135.13-130.23,61.64-292.23-46.5,537,39,225c0,0,28.49-88.11,13.5-133.3s81,563.78,34.49,583.28S899.27,812.11,971.85,739.73s202.49-222,204-259.49"/></svg>
