<svg xmlns="http://www.w3.org/2000/svg" viewBox="0 0 1170.34 548"><defs><style>.cls-1{isolation:isolate;}.cls-2{mix-blend-mode:multiply;}</style></defs><title>logo_black</title><g class="cls-1"><g id="Layer_1" data-name="Layer 1"><path class="cls-2" d="M266.05,179.91l-29.83,51.61s-14,20.29-3,26.26c6.12,3.31,14.52-9,14.52-9l39.45-51.31s17.45-32,18-39.58.13-20.29-14.85-27c-19-8.47-56.76,17-56.76,17s-32.22,22.44-51.35,44.47c-21,24.21-48.36,68-48.36,68S123.1,281.64,125.44,290s4.29,11.38,10.3,10.87A97.23,97.23,0,0,0,150.13,298s4.53,29.69,22.18,26.19,53.1-6.44,53.1-6.44S259.17,307,254,369.21c-5.33,63.43-68.64,110.27-72.24,108.78,0,0-45.9,8.42-45.7-31.72s15.13-71.94,27.72-76.18c15.83-5.33,14.36-20.71,11-21.55,0,0-7.55-15.83-49.42,2.66S81,417.08,81,417.08s-.29,55.11,32,70.46,21.72,9.87,21.72,9.87S169,526.35,190.13,522.2c24.86-4.89,75.06-43.05,94.53-75.14,22-36.31,28.62-66.5,21.36-96.32-7.31-30-18.41-89.47-138.21-66.41,0,0,46.59-97.58,99.32-123C267.13,161.35,280.27,155.32,266.05,179.91Z"/><path class="cls-2" d="M344.82,261.05s1-8.6-8.17-6.8-10.24,5.68-9.94,9.68,3.46,43,3.46,43,3.75,40.58,22,55.57c0,0,5.55,5.19,12.69,3.38,0,0,12.17,21.36,23.59,18.87s19-7.75,23-20.88,12.44-44.84,10.2-67.43,1.12-39.67-8.38-44.24-23.31-4.39-22.6,17.1-9.46,78.46-14,79.52-11.49-2.23-18.49-33.52S344.82,261.05,344.82,261.05Z"/><path class="cls-2" d="M473.53,300s39.62-28.91,26.47-58.55-58.24,41.33-46.88,61.8c0,0-17.76,15.65-16,20.43s18.52-.25,18.52-.25,8.27,15.9,17.28,13.12c0,0,18.71,26.39,38.16,19.25s29.67-25.65,29.67-25.65l3.31-2.55,1.73,10.87,8.72-.38s11,3.32,13.21,13.09c0,0,7.6,3.18,5.65-15.41s-7-67.73-7-67.73,7.18-22.75,6.73-27.74-8.47-25.65-25.29-4.08c0,0-6.41,14.86-7.56,28.88s-31,61.64-46.34,63.06S473.53,300,473.53,300Z"/><path class="cls-2" d="M565.8,194.53s15.46-10.9,16.34-18.12,3.94-7,3.94-7-2.54-26.6-31.85-5.06-6.88,33.15-6.88,33.15l5.92-.94S563.34,210.79,565.8,194.53Z"/><path class="cls-2" d="M722.64,251.28l2.11-18.57s1.16-16,7.89-14.08,14.94.62,15.54,12.87,3.41,32.05,3.41,32.05L779,210.88s12.1-19.43,25.28-15.11S820.88,209,825,228.26s8.11,51,8.11,51,2.11,26-.54,28.44-2.28,4.75-7.88,5.64-9.61-5.22-10.87-4.68-3.93,5-7.9,1.25-15.36-56.28-10-82.11c0,0-27.27,70.49-31,81.2s-14.46-1.75-14.46-1.75-5.42-15-12.85-10.78S724.34,272.61,722.64,251.28Z"/><path class="cls-2" d="M599.94,265l6.89-41.59s12.31-11.75,17.89,4.24.95,42,.95,42,25-50.89,42.18-48.9,25.87-.73,29.76,28,7.55,48.77,6.84,60c-.64,10.11-6,12.35-8.62,12.77s-2-13.79-10.73-11.38-13.58,5.87-22.77-47.69c0,0-26.35,42.33-31.94,70.89,0,0-6.07,6.37-12-3.15A19.19,19.19,0,0,0,602.76,321S593.32,314.7,599.94,265Z"/><path class="cls-2" d="M1022.56,138.45s51.8-84.1,23.56-99.55S943,131.8,943,131.8s-30.25,52-30.85,66.2S923,200.5,923,200.5s10.6,6.61,13.65,12.67,26.59-8.76,26.59-8.76,35.43-20.29,47.5-15.63,32.53,28.47,25.27,64S1010.7,328,992.66,333.9s-51,16.25-56-21.56S962.16,246,962.16,246s12.92-18.31-13.89-19.83-49.34,58-49.34,58-6.12,27.8.15,43.64,35.45,31,38.15,28,14,8.85,14,8.85,58.68,21.55,93.36-37.8,24.09-101.15,24.09-101.15S1049,167.46,999.3,167c0,0-26.24-1.39-56.29,20.88,0,0,47.61-108,81.82-120.87,0,0,15.84-1.4-17.75,51.63s-4.43,42.52-4.43,42.52S1009,163.06,1022.56,138.45Z"/><path class="cls-2" d="M1076.79,324s14.33-2.23,14.85,6.26-5.28,18.77-17,9.61-13.27-14-7.81-14.67Z"/></g></g></svg>
