<svg xmlns="http://www.w3.org/2000/svg" viewBox="0 0 1131.17 567.5"><defs><style>.cls-1{isolation:isolate;}.cls-2{fill:#f8c212;mix-blend-mode:multiply;}</style></defs><title>Logo_yellow</title><g class="cls-1"><g id="Layer_1" data-name="Layer 1"><path class="cls-2" d="M228.52,178.21l-29.83,51.61s-14,20.29-3,26.25c6.12,3.31,14.53-9,14.53-9l39.44-51.31s17.45-32,18-39.59.12-20.28-14.86-27c-19-8.46-56.75,17.05-56.75,17.05s-32.22,22.44-51.35,44.47c-21,24.22-48.37,68-48.37,68s-10.76,21.16-8.42,29.54,4.29,11.38,10.31,10.87a99,99,0,0,0,14.39-2.85s4.52,29.68,22.18,26.18,53.09-6.44,53.09-6.44,33.76-10.77,28.54,51.43c-5.33,63.44-68.63,110.28-72.23,108.79,0,0-45.91,8.41-45.71-31.73s15.14-71.93,27.73-76.17c15.83-5.33,14.35-20.72,11-21.55,0,0-7.56-15.84-49.43,2.65s-44.37,65.89-44.37,65.89-.3,55.1,32,70.46,21.71,9.87,21.71,9.87,34.38,28.93,55.5,24.78c24.85-4.88,75.06-43.05,94.53-75.14,22-36.31,28.62-66.5,21.35-96.32s-18.41-89.46-138.21-66.4c0,0,46.59-97.58,99.32-123C229.6,159.64,242.74,153.61,228.52,178.21Z"/><path class="cls-2" d="M307.29,259.35s1-8.6-8.17-6.8-10.23,5.67-9.93,9.68,3.46,43,3.46,43,3.75,40.58,22,55.56c0,0,5.56,5.2,12.69,3.39,0,0,12.17,21.35,23.59,18.86s19-7.75,23-20.87,12.45-44.84,10.2-67.44,1.12-39.67-8.38-44.23-23.31-4.4-22.59,17.09-9.47,78.46-14,79.52-11.49-2.22-18.49-33.51S307.29,259.35,307.29,259.35Z"/><path class="cls-2" d="M436,298.29s39.62-28.91,26.47-58.55-58.23,41.32-46.88,61.79c0,0-17.76,15.65-16,20.43s18.53-.24,18.53-.24,8.26,15.9,17.27,13.12c0,0,18.71,26.39,38.16,19.24s29.68-25.64,29.68-25.64l3.31-2.55,1.72,10.86,8.72-.37s11,3.31,13.22,13.09c0,0,7.59,3.18,5.65-15.42s-7.06-67.73-7.06-67.73,7.19-22.74,6.73-27.73-8.47-25.66-25.29-4.08c0,0-6.41,14.86-7.56,28.88s-31,61.63-46.34,63.05S436,298.29,436,298.29Z"/><path class="cls-2" d="M528.27,192.83s15.47-10.9,16.34-18.13,3.95-7,3.95-7S546,141.07,516.7,162.6s-6.88,33.16-6.88,33.16l5.93-.94S525.81,209.08,528.27,192.83Z"/><path class="cls-2" d="M685.11,249.57,687.22,231s1.16-16,7.89-14.08,14.95.61,15.55,12.86,3.4,32.06,3.4,32.06l27.41-52.68s12.1-19.42,25.27-15.1,16.62,13.22,20.69,32.49,8.12,51,8.12,51,2.1,26-.55,28.44-2.28,4.75-7.88,5.64-9.6-5.22-10.87-4.69-3.92,5-7.9,1.26-15.36-56.29-10-82.11c0,0-27.27,70.49-31,81.2s-14.46-1.75-14.46-1.75-5.42-15-12.85-10.78S686.81,270.9,685.11,249.57Z"/><path class="cls-2" d="M562.42,263.34l6.89-41.6S581.61,210,587.19,226s.95,42,.95,42,25-50.89,42.18-48.9,25.87-.74,29.77,28,7.54,48.76,6.83,60c-.63,10.12-6,12.35-8.62,12.77s-2-13.78-10.73-11.38S634,314.4,624.8,260.85c0,0-26.35,42.33-31.93,70.89,0,0-6.08,6.37-12-3.16a19.19,19.19,0,0,0-15.66-9.32S555.8,313,562.42,263.34Z"/><path class="cls-2" d="M985,136.74s51.81-84.09,23.57-99.54-103.14,92.89-103.14,92.89-30.24,52-30.85,66.21,10.83,2.5,10.83,2.5,10.6,6.61,13.64,12.66,26.6-8.75,26.6-8.75,35.43-20.3,47.49-15.63,32.53,28.46,25.28,64-25.27,75.17-43.32,81.11-51,16.25-56-21.56,25.55-66.31,25.55-66.31S937.56,226,910.74,224.5s-49.34,58-49.34,58-6.11,27.8.15,43.64,35.46,31,38.16,28,14,8.85,14,8.85,58.68,21.55,93.36-37.81S1031.12,224,1031.12,224s-19.7-58.26-69.34-58.77c0,0-26.25-1.38-56.29,20.89,0,0,47.61-108,81.81-120.88,0,0,15.84-1.39-17.75,51.64s-4.43,42.52-4.43,42.52S971.52,161.36,985,136.74Z"/><path class="cls-2" d="M1039.26,322.26s14.33-2.24,14.86,6.26-5.29,18.77-17,9.61-13.28-14-7.82-14.68Z"/></g></g></svg>
